<?xml version="1.0" standalone="no"?>
<!DOCTYPE svg PUBLIC "-//W3C//DTD SVG 20010904//EN"
 "http://www.w3.org/TR/2001/REC-SVG-20010904/DTD/svg10.dtd">
<svg version="1.0" xmlns="http://www.w3.org/2000/svg"
 width="788.000000pt" height="788.000000pt" viewBox="0 0 788.000000 788.000000"
 preserveAspectRatio="xMidYMid meet">
<metadata>
Created by potrace 1.14, written by Peter Selinger 2001-2017
</metadata>
<g transform="translate(0.000000,788.000000) scale(0.100000,-0.100000)"
fill="#000000" stroke="none">
<path d="M4220 5615 l0 -55 66 0 65 0 -3 53 -3 52 -62 3 -63 3 0 -56z"/>
<path d="M2214 5490 c-17 -6 -43 -21 -57 -36 l-26 -25 -3 28 c-3 27 -6 28 -60
31 l-58 3 0 -316 0 -315 60 0 60 0 0 112 0 111 23 -20 c35 -33 62 -43 112 -43
120 0 195 109 183 266 -10 146 -118 239 -234 204z m59 -110 c34 -27 51 -81 44
-146 -6 -61 -27 -98 -66 -113 -32 -14 -67 -4 -95 28 -22 24 -33 108 -22 167
14 74 84 107 139 64z"/>
<path d="M3016 5485 c-43 -15 -91 -57 -112 -97 -60 -115 -24 -284 72 -340 73
-43 197 -40 264 7 31 21 80 88 80 109 0 3 -29 6 -64 6 -57 0 -65 -3 -71 -21
-9 -27 -69 -52 -105 -44 -38 8 -70 45 -77 89 l-6 36 162 0 161 0 0 41 c0 67
-21 121 -65 164 -61 62 -153 81 -239 50z m133 -90 c23 -11 51 -57 51 -81 0 -2
-45 -4 -100 -4 -55 0 -100 2 -100 4 0 1 5 17 11 35 19 54 82 75 138 46z"/>
<path d="M3614 5489 c-17 -5 -39 -18 -49 -29 -24 -27 -35 -25 -35 5 0 24 -3
25 -55 25 l-55 0 0 -230 0 -230 59 0 59 0 4 153 c2 126 6 156 21 179 35 51
106 44 126 -13 6 -18 11 -95 11 -175 l0 -144 59 0 59 0 4 148 c4 160 13 193
57 212 39 16 76 -1 90 -41 6 -18 11 -95 11 -175 l0 -144 60 0 60 0 0 170 c0
122 -4 180 -14 203 -42 100 -172 123 -259 47 -32 -27 -34 -28 -45 -10 -27 44
-107 67 -168 49z"/>
<path d="M5196 5490 c-16 -5 -39 -19 -51 -30 l-23 -22 -4 24 c-3 21 -9 23 -60
26 l-58 3 0 -231 0 -230 59 0 59 0 4 148 c3 94 9 157 17 173 16 33 54 51 87
43 45 -11 54 -48 54 -214 l0 -150 59 0 59 0 4 148 c3 92 9 157 18 174 15 31
59 53 89 43 42 -13 51 -53 51 -215 l0 -150 60 0 60 0 0 176 c0 160 -2 180 -21
214 -48 85 -168 102 -249 33 l-31 -26 -28 27 c-16 15 -46 32 -67 37 -46 10
-50 10 -88 -1z"/>
<path d="M2550 5260 l0 -230 60 0 60 0 0 125 c0 178 25 225 117 225 l43 0 0
55 0 55 -41 0 c-44 0 -72 -11 -106 -43 l-23 -20 0 31 0 32 -55 0 -55 0 0 -230z"/>
<path d="M4220 5260 l0 -230 65 0 65 0 -2 228 -3 227 -62 3 -63 3 0 -231z"/>
<path d="M4460 5317 c0 -162 2 -177 23 -217 27 -51 75 -80 134 -80 50 0 90 14
121 42 l22 21 0 -26 c0 -26 2 -27 60 -27 l60 0 0 230 0 231 -62 -3 -63 -3 -5
-155 c-6 -188 -15 -210 -86 -210 -69 0 -84 40 -84 233 l0 137 -60 0 -60 0 0
-173z"/>
<path d="M2387 4753 c-4 -3 -7 -147 -7 -320 l0 -313 64 0 65 0 3 154 c3 148 4
156 27 180 31 33 89 36 117 5 17 -18 19 -40 22 -180 l3 -159 60 0 59 0 0 173
c0 190 -7 220 -63 261 -42 31 -150 30 -194 -2 l-33 -23 0 115 0 116 -58 0
c-32 0 -62 -3 -65 -7z"/>
<path d="M3457 4753 c-4 -3 -7 -147 -7 -320 l0 -313 65 0 65 0 0 320 0 320
-58 0 c-32 0 -62 -3 -65 -7z"/>
<path d="M3697 4753 c-4 -3 -7 -28 -7 -55 l0 -48 65 0 65 0 0 55 0 55 -58 0
c-32 0 -62 -3 -65 -7z"/>
<path d="M4237 4754 c-4 -4 -7 -56 -7 -115 l0 -108 -36 24 c-43 29 -127 34
-174 10 -36 -19 -74 -68 -91 -120 -16 -48 -15 -169 1 -210 31 -81 93 -127 170
-127 50 0 81 12 118 45 l22 20 0 -26 c0 -26 2 -27 60 -27 l60 0 -2 318 -3 317
-55 3 c-31 2 -59 0 -63 -4z m-37 -292 c52 -53 52 -181 0 -234 -31 -30 -55 -35
-94 -17 -40 19 -59 71 -54 151 3 64 7 73 36 99 41 37 76 37 112 1z"/>
<path d="M3065 4581 c-85 -22 -136 -73 -161 -158 -56 -192 86 -354 274 -315
67 14 117 51 152 113 21 37 25 57 25 124 0 84 -14 124 -59 173 -47 52 -158 82
-231 63z m104 -105 c97 -51 65 -276 -39 -276 -68 0 -103 49 -104 145 0 112 64
171 143 131z"/>
<path d="M4596 4579 c-70 -17 -126 -74 -126 -129 0 -18 6 -20 59 -20 55 0 59
2 65 25 6 25 39 45 76 45 27 0 59 -32 66 -66 l6 -30 -87 -12 c-151 -20 -205
-61 -205 -155 0 -79 58 -127 155 -127 57 0 101 16 126 46 13 15 14 15 19 -7 5
-21 12 -24 60 -27 l55 -3 -3 143 c-1 79 -5 162 -8 185 -6 47 -40 95 -84 118
-37 19 -125 26 -174 14z m141 -295 c-9 -55 -41 -84 -92 -84 -52 0 -81 26 -71
65 8 33 55 54 120 55 l49 0 -6 -36z"/>
<path d="M3690 4345 l0 -225 65 0 65 0 0 225 0 225 -65 0 -65 0 0 -225z"/>
<path d="M4966 4383 c79 -226 84 -242 84 -270 0 -38 -34 -63 -85 -63 l-45 0 0
-50 0 -50 71 0 c39 0 80 5 92 11 32 16 77 60 92 89 13 26 185 503 185 514 0 3
-29 6 -63 6 l-64 0 -36 -117 c-20 -65 -42 -140 -50 -168 -10 -37 -16 -45 -20
-30 -3 11 -24 86 -48 168 l-42 147 -68 0 -68 0 65 -187z"/>
<path d="M3952 3788 l3 -53 60 0 60 0 3 53 3 52 -66 0 -66 0 3 -52z"/>
<path d="M2178 3650 c-55 -30 -78 -65 -78 -121 0 -69 30 -100 122 -128 116
-35 138 -47 138 -75 0 -62 -117 -62 -140 0 -9 22 -15 24 -70 24 -58 0 -60 -1
-60 -26 0 -39 35 -89 78 -110 53 -27 192 -26 246 0 47 24 76 69 76 119 0 81
-45 120 -173 153 -96 24 -126 70 -62 94 38 14 75 2 94 -31 15 -27 21 -29 74
-29 65 0 66 3 37 68 -15 33 -29 47 -62 62 -59 27 -169 26 -220 0z"/>
<path d="M2685 3654 c-84 -46 -124 -114 -125 -213 0 -87 17 -138 65 -187 97
-101 288 -80 354 37 12 20 21 39 21 43 0 3 -29 6 -65 6 -36 0 -65 -4 -65 -10
0 -23 -45 -50 -86 -50 -60 0 -104 51 -104 121 0 5 75 9 166 9 l166 0 -7 53
c-9 74 -43 136 -94 172 -37 26 -53 30 -119 33 -56 2 -85 -2 -107 -14z m170
-106 c14 -16 25 -38 25 -49 0 -17 -8 -19 -94 -19 -52 0 -97 4 -100 8 -12 19
30 77 63 88 46 15 77 7 106 -28z"/>
<path d="M3296 3660 c-16 -5 -42 -21 -57 -36 l-29 -28 0 32 0 32 -55 0 -55 0
0 -230 0 -230 59 0 58 0 5 139 c3 110 8 144 22 166 21 31 79 59 113 52 22 -4
23 -1 23 48 0 66 -15 75 -84 55z"/>
<path d="M4300 3654 c-46 -20 -77 -50 -103 -99 -17 -32 -22 -57 -22 -126 0
-78 3 -90 30 -135 78 -128 274 -140 367 -23 16 19 31 52 35 72 l6 37 -67 0
c-58 0 -66 -2 -66 -19 0 -10 -9 -30 -21 -45 -22 -28 -73 -36 -109 -16 -31 16
-54 92 -47 156 7 64 27 101 64 115 47 18 112 -19 113 -63 0 -15 10 -18 65 -18
61 0 65 1 65 23 0 41 -54 112 -102 136 -53 25 -155 28 -208 5z"/>
<path d="M4804 3651 c-85 -39 -131 -130 -122 -245 7 -81 38 -140 96 -181 40
-27 51 -30 125 -30 71 0 88 4 129 27 43 26 88 80 88 107 0 7 -23 11 -65 11
-37 0 -65 -4 -65 -10 0 -5 -9 -19 -20 -30 -27 -27 -89 -27 -123 0 -26 20 -52
85 -41 102 3 4 77 8 165 8 l159 0 0 28 c0 47 -29 129 -57 163 -56 67 -181 90
-269 50z m152 -83 c22 -10 44 -47 44 -73 0 -12 -19 -15 -95 -15 -105 0 -109 3
-80 60 23 44 75 55 131 28z"/>
<path d="M5283 3649 c-68 -33 -96 -98 -70 -160 21 -51 49 -70 139 -96 112 -32
140 -60 100 -96 -39 -35 -132 -8 -132 38 0 12 -15 15 -65 15 l-65 0 6 -27 c19
-84 72 -123 172 -131 86 -6 144 11 190 53 34 31 37 38 37 90 0 52 -3 59 -37
90 -23 22 -58 40 -95 50 -113 31 -128 39 -128 65 0 44 72 61 112 28 7 -6 13
-19 13 -29 0 -17 8 -19 61 -19 l62 0 -6 36 c-7 43 -39 81 -84 100 -50 22 -160
18 -210 -7z"/>
<path d="M3424 3643 c3 -10 39 -112 78 -228 l73 -210 80 0 80 0 77 228 77 228
-66 -3 -66 -3 -43 -150 c-23 -82 -46 -166 -51 -185 -8 -33 -10 -30 -37 73 -15
59 -39 143 -52 187 l-25 80 -65 0 c-58 0 -65 -2 -60 -17z"/>
<path d="M3950 3430 l0 -230 65 0 65 0 0 230 0 230 -65 0 -65 0 0 -230z"/>
</g>
</svg>
